ply
format ascii 1.0
comment Created by Blender 3.3.1 - www.blender.org
element vertex 18
property float x
property float y
property float z
property float nx
property float ny
property float nz
property float s
property float t
element face 7
property list uchar uint vertex_indices
end_header
4.389381 5.359411 2.822299 0.577350 0.577350 0.577350 0.625000 0.500000
2.389382 5.359411 2.822299 -0.577350 0.577350 0.577350 0.875000 0.500000
2.389382 3.359411 2.822299 -0.577350 -0.577350 0.577350 0.875000 0.750000
4.389381 3.359411 2.822299 0.577350 -0.577350 0.577350 0.625000 0.750000
4.389381 3.359411 0.822299 0.577350 -0.577350 -0.577350 0.375000 0.750000
2.389382 3.359411 2.822299 -0.577350 -0.577350 0.577350 0.625000 1.000000
2.389382 3.359411 0.822299 -0.577350 -0.577350 -0.577350 0.375000 1.000000
2.389382 3.359411 0.822299 -0.577350 -0.577350 -0.577350 0.375000 0.000000
2.389382 3.359411 2.822299 -0.577350 -0.577350 0.577350 0.625000 0.000000
2.389382 5.359411 2.822299 -0.577350 0.577350 0.577350 0.625000 0.250000
2.389382 5.359411 0.822299 -0.577350 0.577350 -0.577350 0.375000 0.250000
2.389382 5.359411 0.822299 -0.577350 0.577350 -0.577350 0.125000 0.500000
4.389381 5.359411 0.822299 0.577350 0.577350 -0.577350 0.375000 0.500000
2.389382 3.359411 0.822299 -0.577350 -0.577350 -0.577350 0.125000 0.750000
-10.701241 -10.701241 0.000000 0.000000 0.000000 1.000000 0.000000 0.000000
10.701241 -10.701241 0.000000 0.000000 0.000000 1.000000 1.000000 0.000000
10.701241 10.701241 0.000000 0.000000 0.000000 1.000000 1.000000 1.000000
-10.701241 10.701241 0.000000 0.000000 0.000000 1.000000 0.000000 1.000000
4 0 1 2 3
4 4 3 5 6
4 7 8 9 10
4 11 12 4 13
4 12 0 3 4
4 10 9 0 12
4 14 15 16 17
